<svg width="25" height="24" viewBox="0 0 25 24" fill="none" xmlns="http://www.w3.org/2000/svg">
<path d="M14.85 19.5V15C14.85 14.801 14.771 14.6103 14.6303 14.4696C14.4897 14.329 14.2989 14.25 14.1 14.25H11.1C10.9011 14.25 10.7103 14.329 10.5697 14.4696C10.429 14.6103 10.35 14.801 10.35 15V19.5C10.35 19.6989 10.271 19.8896 10.1303 20.0303C9.98968 20.1709 9.79892 20.25 9.60001 20.25H5.10001C4.90109 20.25 4.71033 20.1709 4.56968 20.0303C4.42902 19.8896 4.35001 19.6989 4.35001 19.5V10.8281C4.35169 10.7243 4.37412 10.6219 4.41598 10.5269C4.45784 10.4319 4.51829 10.3462 4.59376 10.275L12.0938 3.45933C12.232 3.33284 12.4126 3.2627 12.6 3.2627C12.7874 3.2627 12.968 3.33284 13.1063 3.45933L20.6063 10.275C20.6817 10.3462 20.7422 10.4319 20.784 10.5269C20.8259 10.6219 20.8483 10.7243 20.85 10.8281V19.5C20.85 19.6989 20.771 19.8896 20.6303 20.0303C20.4897 20.1709 20.2989 20.25 20.1 20.25H15.6C15.4011 20.25 15.2103 20.1709 15.0697 20.0303C14.929 19.8896 14.85 19.6989 14.85 19.5Z" stroke="#707070" stroke-width="2" stroke-linecap="round" stroke-linejoin="round"/>
</svg>
