<svg width="30" height="23" viewBox="0 0 30 23" fill="none" xmlns="http://www.w3.org/2000/svg">
<path d="M28.8375 5.18755C28.5515 4.94878 28.2041 4.79522 27.835 4.74438C27.4659 4.69355 27.0899 4.74749 26.75 4.90005L20.425 7.71255L16.75 1.08755C16.5744 0.778251 16.3199 0.521027 16.0125 0.342082C15.7051 0.163137 15.3557 0.0688629 15 0.0688629C14.6443 0.0688629 14.295 0.163137 13.9876 0.342082C13.6802 0.521027 13.4257 0.778251 13.25 1.08755L9.57501 7.71255L3.25001 4.90005C2.90939 4.74772 2.53295 4.6937 2.16324 4.74412C1.79353 4.79453 1.4453 4.94737 1.15791 5.18534C0.870517 5.42332 0.655428 5.73695 0.536958 6.09077C0.418487 6.44459 0.40136 6.8245 0.487512 7.18755L3.66251 20.7251C3.72322 20.9871 3.83651 21.2342 3.99551 21.4512C4.15451 21.6682 4.35591 21.8507 4.58751 21.9876C4.90107 22.1752 5.25957 22.2746 5.62501 22.2751C5.80266 22.2747 5.97938 22.2495 6.15001 22.2001C11.9373 20.6 18.0502 20.6 23.8375 22.2001C24.3659 22.339 24.9279 22.2626 25.4 21.9876C25.633 21.8524 25.8355 21.6705 25.9947 21.4532C26.1539 21.2359 26.2664 20.988 26.325 20.7251L29.5125 7.18755C29.5977 6.82441 29.5796 6.44467 29.4603 6.09125C29.3411 5.73783 29.1253 5.42481 28.8375 5.18755ZM20 16.3126C19.9725 16.559 19.8554 16.7868 19.6711 16.9527C19.4868 17.1185 19.248 17.211 19 17.2126H18.9C16.3066 16.95 13.6934 16.95 11.1 17.2126C10.8365 17.2406 10.5726 17.1628 10.3664 16.9964C10.1601 16.83 10.0283 16.5885 10 16.3251C9.97551 16.0602 10.0562 15.7964 10.2246 15.5906C10.393 15.3848 10.6356 15.2535 10.9 15.2251C13.6258 14.9376 16.3742 14.9376 19.1 15.2251C19.3621 15.2535 19.6027 15.383 19.7708 15.5861C19.9388 15.7892 20.0211 16.0498 20 16.3126Z" fill="#F2C94C"/>
</svg>
