<svg width="16" height="18" viewBox="0 0 16 18" fill="none" xmlns="http://www.w3.org/2000/svg">
<path d="M14.25 6.875H1.75C1.40482 6.875 1.125 7.15482 1.125 7.5V16.25C1.125 16.5952 1.40482 16.875 1.75 16.875H14.25C14.5952 16.875 14.875 16.5952 14.875 16.25V7.5C14.875 7.15482 14.5952 6.875 14.25 6.875Z" stroke="#8E8E8E" stroke-width="2" stroke-linecap="round" stroke-linejoin="round"/>
<path d="M5.1875 6.875V4.0625C5.1875 3.31658 5.48382 2.60121 6.01126 2.07376C6.53871 1.54632 7.25408 1.25 8 1.25C8.74592 1.25 9.46129 1.54632 9.98874 2.07376C10.5162 2.60121 10.8125 3.31658 10.8125 4.0625V6.875" stroke="#8E8E8E" stroke-width="2" stroke-linecap="round" stroke-linejoin="round"/>
<path d="M8 12.8125C8.86294 12.8125 9.5625 12.1129 9.5625 11.25C9.5625 10.3871 8.86294 9.6875 8 9.6875C7.13706 9.6875 6.4375 10.3871 6.4375 11.25C6.4375 12.1129 7.13706 12.8125 8 12.8125Z" stroke="#8E8E8E" stroke-width="2" stroke-linecap="round" stroke-linejoin="round"/>
<path d="M8 12.8125V14.0625" stroke="#8E8E8E" stroke-width="2" stroke-linecap="round" stroke-linejoin="round"/>
</svg>
