<svg width="28" height="26" viewBox="0 0 28 26" fill="none" xmlns="http://www.w3.org/2000/svg">
<path d="M14.3335 12.5C17.6472 12.5 20.3335 9.81371 20.3335 6.5C20.3335 3.18629 17.6472 0.5 14.3335 0.5C11.0198 0.5 8.3335 3.18629 8.3335 6.5C8.3335 9.81371 11.0198 12.5 14.3335 12.5Z" fill="#ED4C4D"/>
<path d="M21.8335 25.5C25.1472 25.5 27.8335 22.8137 27.8335 19.5C27.8335 16.1863 25.1472 13.5 21.8335 13.5C18.5198 13.5 15.8335 16.1863 15.8335 19.5C15.8335 22.8137 18.5198 25.5 21.8335 25.5Z" fill="#ED4C4D"/>
<path d="M6.8335 25.5C10.1472 25.5 12.8335 22.8137 12.8335 19.5C12.8335 16.1863 10.1472 13.5 6.8335 13.5C3.51979 13.5 0.833496 16.1863 0.833496 19.5C0.833496 22.8137 3.51979 25.5 6.8335 25.5Z" fill="#ED4C4D"/>
</svg>
