<svg width="25" height="24" viewBox="0 0 25 24" fill="none" xmlns="http://www.w3.org/2000/svg">
<path d="M12.4 16.125C14.6781 16.125 16.525 14.2782 16.525 12C16.525 9.72183 14.6781 7.875 12.4 7.875C10.1218 7.875 8.27496 9.72183 8.27496 12C8.27496 14.2782 10.1218 16.125 12.4 16.125Z" stroke="#707070" stroke-width="2" stroke-linecap="round" stroke-linejoin="round"/>
<path d="M18.9062 7.5656C19.1319 7.88873 19.3295 8.23061 19.4969 8.58748L21.925 9.93748C22.2282 11.2954 22.2314 12.7032 21.9344 14.0625L19.4969 15.4125C19.3295 15.7693 19.1319 16.1112 18.9062 16.4344L18.9531 19.2187C17.9241 20.1564 16.7061 20.8629 15.3812 21.2906L12.9906 19.8562C12.5974 19.8844 12.2026 19.8844 11.8094 19.8562L9.42812 21.2812C8.09903 20.8613 6.87708 20.1576 5.84687 19.2187L5.89374 16.4437C5.66993 16.1161 5.47244 15.7713 5.30312 15.4125L2.87499 14.0625C2.5718 12.7045 2.5686 11.2968 2.86562 9.93748L5.30312 8.58748C5.47044 8.23061 5.66804 7.88873 5.89374 7.5656L5.84687 4.78123C6.87591 3.84351 8.09385 3.13704 9.41874 2.70935L11.8094 4.14373C12.2026 4.1156 12.5974 4.1156 12.9906 4.14373L15.3719 2.71873C16.701 3.13863 17.9229 3.84237 18.9531 4.78123L18.9062 7.5656Z" stroke="#707070" stroke-width="2" stroke-linecap="round" stroke-linejoin="round"/>
</svg>
