<svg width="16" height="16" viewBox="0 0 16 16" fill="none" xmlns="http://www.w3.org/2000/svg">
<path d="M8 14C11.3137 14 14 11.3137 14 8C14 4.68629 11.3137 2 8 2C4.68629 2 2 4.68629 2 8C2 11.3137 4.68629 14 8 14Z" stroke="#2D70F2" stroke-width="1.5" stroke-linecap="round" stroke-linejoin="round"/>
<path d="M8 10C9.38071 10 10.5 8.88071 10.5 7.5C10.5 6.11929 9.38071 5 8 5C6.61929 5 5.5 6.11929 5.5 7.5C5.5 8.88071 6.61929 10 8 10Z" stroke="#2D70F2" stroke-width="1.5" stroke-linecap="round" stroke-linejoin="round"/>
<path d="M3.98755 12.4625C4.36374 11.7215 4.93777 11.0992 5.64601 10.6645C6.35425 10.2297 7.16904 9.99963 8.00005 9.99963C8.83106 9.99963 9.64585 10.2297 10.3541 10.6645C11.0623 11.0992 11.6364 11.7215 12.0125 12.4625" stroke="#2D70F2" stroke-width="1.5" stroke-linecap="round" stroke-linejoin="round"/>
</svg>
